<svg xmlns="http://www.w3.org/2000/svg" xmlns:xlink="http://www.w3.org/1999/xlink" width="1211" zoomAndPan="magnify" viewBox="0 0 908.25 510.74999" height="681" preserveAspectRatio="xMidYMid meet" version="1.0"><defs><g/></defs><g fill="#ffffff" fill-opacity="1"><g transform="translate(32.167403, 325.095853)"><g><path d="M 98 -166.640625 C 106.726562 -175.628906 115.125 -182.109375 123.1875 -186.078125 C 131.257812 -190.046875 140.71875 -192.03125 151.5625 -192.03125 C 167.4375 -192.03125 181.519531 -187.929688 193.8125 -179.734375 C 206.113281 -171.535156 215.632812 -160.03125 222.375 -145.21875 C 229.125 -130.40625 232.5 -113.476562 232.5 -94.4375 C 232.5 -71.6875 228.398438 -53.035156 220.203125 -38.484375 C 212.003906 -23.941406 201.820312 -13.425781 189.65625 -6.9375 C 177.488281 -0.457031 165.1875 2.78125 152.75 2.78125 C 141.644531 2.78125 131.726562 0.734375 123 -3.359375 C 114.269531 -7.460938 105.9375 -13.484375 98 -21.421875 L 98 0 L 5.5625 0 L 5.5625 -43.25 L 37.296875 -43.25 L 37.296875 -226.15625 L 5.5625 -226.15625 L 5.5625 -269.40625 L 98 -269.40625 Z M 134.5 -142.828125 C 122.863281 -142.828125 113.804688 -138.394531 107.328125 -129.53125 C 100.847656 -120.675781 97.609375 -108.445312 97.609375 -92.84375 C 97.609375 -77.769531 100.976562 -65.800781 107.71875 -56.9375 C 114.46875 -48.070312 123.394531 -43.640625 134.5 -43.640625 C 145.613281 -43.640625 154.472656 -48.132812 161.078125 -57.125 C 167.691406 -66.125 171 -78.5625 171 -94.4375 C 171 -109.25 167.957031 -121.015625 161.875 -129.734375 C 155.789062 -138.460938 146.664062 -142.828125 134.5 -142.828125 Z M 134.5 -142.828125 "/></g></g></g><g fill="#ffffff" fill-opacity="1"><g transform="translate(280.142492, 325.095853)"><g><path d="M 15.078125 -94.03125 C 15.078125 -114.664062 19.570312 -132.390625 28.5625 -147.203125 C 37.5625 -162.015625 49.53125 -173.1875 64.46875 -180.71875 C 79.414062 -188.257812 95.75 -192.03125 113.46875 -192.03125 C 131.988281 -192.03125 148.785156 -188.191406 163.859375 -180.515625 C 178.941406 -172.847656 190.78125 -161.609375 199.375 -146.796875 C 207.96875 -131.984375 212.265625 -114.394531 212.265625 -94.03125 C 212.265625 -74.457031 208.097656 -57.265625 199.765625 -42.453125 C 191.429688 -27.640625 179.789062 -16.132812 164.84375 -7.9375 C 149.90625 0.257812 132.78125 4.359375 113.46875 4.359375 C 94.957031 4.359375 78.226562 0.394531 63.28125 -7.53125 C 48.332031 -15.46875 36.5625 -26.84375 27.96875 -41.65625 C 19.375 -56.46875 15.078125 -73.925781 15.078125 -94.03125 Z M 113.078125 -145.609375 C 100.910156 -145.609375 91.785156 -140.910156 85.703125 -131.515625 C 79.617188 -122.128906 76.578125 -109.238281 76.578125 -92.84375 C 76.578125 -76.707031 79.816406 -64.207031 86.296875 -55.34375 C 92.773438 -46.488281 101.832031 -42.0625 113.46875 -42.0625 C 125.113281 -42.0625 134.238281 -46.554688 140.84375 -55.546875 C 147.457031 -64.535156 150.765625 -77.363281 150.765625 -94.03125 C 150.765625 -109.90625 147.585938 -122.46875 141.234375 -131.71875 C 134.890625 -140.976562 125.503906 -145.609375 113.078125 -145.609375 Z M 113.078125 -145.609375 "/></g></g></g><g fill="#ffffff" fill-opacity="1"><g transform="translate(507.486081, 325.095853)"><g><path d="M 15.078125 -94.03125 C 15.078125 -114.664062 19.570312 -132.390625 28.5625 -147.203125 C 37.5625 -162.015625 49.53125 -173.1875 64.46875 -180.71875 C 79.414062 -188.257812 95.75 -192.03125 113.46875 -192.03125 C 131.988281 -192.03125 148.785156 -188.191406 163.859375 -180.515625 C 178.941406 -172.847656 190.78125 -161.609375 199.375 -146.796875 C 207.96875 -131.984375 212.265625 -114.394531 212.265625 -94.03125 C 212.265625 -74.457031 208.097656 -57.265625 199.765625 -42.453125 C 191.429688 -27.640625 179.789062 -16.132812 164.84375 -7.9375 C 149.90625 0.257812 132.78125 4.359375 113.46875 4.359375 C 94.957031 4.359375 78.226562 0.394531 63.28125 -7.53125 C 48.332031 -15.46875 36.5625 -26.84375 27.96875 -41.65625 C 19.375 -56.46875 15.078125 -73.925781 15.078125 -94.03125 Z M 113.078125 -145.609375 C 100.910156 -145.609375 91.785156 -140.910156 85.703125 -131.515625 C 79.617188 -122.128906 76.578125 -109.238281 76.578125 -92.84375 C 76.578125 -76.707031 79.816406 -64.207031 86.296875 -55.34375 C 92.773438 -46.488281 101.832031 -42.0625 113.46875 -42.0625 C 125.113281 -42.0625 134.238281 -46.554688 140.84375 -55.546875 C 147.457031 -64.535156 150.765625 -77.363281 150.765625 -94.03125 C 150.765625 -109.90625 147.585938 -122.46875 141.234375 -131.71875 C 134.890625 -140.976562 125.503906 -145.609375 113.078125 -145.609375 Z M 113.078125 -145.609375 "/></g></g></g><g fill="#ffffff" fill-opacity="1"><g transform="translate(734.829644, 325.095853)"><g><path d="M 37.6875 0 L 37.6875 -65.0625 L 102.765625 -65.0625 L 102.765625 0 Z M 37.6875 0 "/></g></g></g></svg>